# xmcd
#
# Track frame offsets: 
#        150
#        9916
#        17180
#        27902
#        45303
#        57326
#        70662
#        79604
#        91673
#        103772
#        117892
#        134001
#        145182
#        158023
#        170442
#        182130
#        194944
#        214494
#        226018
#        238588
#
# Disc length: 3311 seconds
#
# Revision: 0
# Processed by: cddbd v1.5.2PL0 Copyright (c) Steve Scherf et al.
# Submitted via: ExactAudioCopy v0.99pb4
#
DISCID=0b0ced14
DTITLE=Various Artist - Lemon Popsicles And Strawberry Milkshakes: Welcome To
DTITLE=The 60s CD3
DYEAR=2011
DGENRE=Pop
TTITLE0=Buddy Holly - Heartbeat
TTITLE1=Maurice Williams And The Zodiacs - Stay
TTITLE2=Brenda Lee - Sweet Nothin's
TTITLE3=Wink Martindale - Deck Of Cards
TTITLE4=Neil Sedaka - Stairway To Heaven
TTITLE5=Shirley Bassey - As Long As He Needs Me
TTITLE6=Fats Domino - Walking To New Orleans
TTITLE7=Mark Dinning - Teen Angel
TTITLE8=Paul Anka - Puppy Love
TTITLE9=José Feliciano - Light My Fire
TTITLE10=Ray Charles - Georgia On My Mind
TTITLE11=Bobby Vee - Rubber Ball
TTITLE12=Shangri-Las - Leader Of The Pack
TTITLE13=Brook Benton and Dinah Washington - Baby (You've Got What It 
TTITLE13=Takes)
TTITLE14=Chubby Checker - The Twist
TTITLE15=Bob And Earl - Harlem Shuffle
TTITLE16=Marty Robbins - El Paso
TTITLE17=Maxine Brown - Oh No Not My Baby
TTITLE18=Archies - Sugar Sugar
TTITLE19=Maureen Evans - Paper Roses
EXTD=
EXTT0=
EXTT1=
EXTT2=
EXTT3=
EXTT4=
EXTT5=
EXTT6=
EXTT7=
EXTT8=
EXTT9=
EXTT10=
EXTT11=
EXTT12=
EXTT13=
EXTT14=
EXTT15=
EXTT16=
EXTT17=
EXTT18=
EXTT19=
PLAYORDER=
